<!DOCTYPE svg PUBLIC "-//W3C//DTD SVG 1.1//EN" "http://www.w3.org/Graphics/SVG/1.1/DTD/svg11.dtd">
<!-- Uploaded to: SVG Repo, www.svgrepo.com, Transformed by: SVG Repo Mixer Tools -->
<svg fill="#c72323" width="800px" height="800px" viewBox="-5.12 -5.12 138.24 138.24" xmlns="http://www.w3.org/2000/svg" stroke="#c72323">
<g id="SVGRepo_bgCarrier" stroke-width="0"/>
<g id="SVGRepo_tracerCarrier" stroke-linecap="round" stroke-linejoin="round"/>
<g id="SVGRepo_iconCarrier"> <title/> <g id="Grid"> <path d="M73.61,108.1H53.11A29.58,29.58,0,0,1,23.83,81.3c-.08-.88-.12-1.75-.12-2.59V47.89H103V78.71c0,.84,0,1.71-.12,2.59A29.56,29.56,0,0,1,73.61,108.1ZM26.71,50.89V78.71c0,.75,0,1.53.11,2.33A26.55,26.55,0,0,0,53.11,105.1h20.5A26.55,26.55,0,0,0,99.89,81c.07-.8.11-1.58.11-2.33V50.89Z"/> <path d="M27,82.67H25.21a14.22,14.22,0,0,1,0-28.43h1.5V78.71c0,.75,0,1.53.11,2.33ZM23.71,57.34a11.22,11.22,0,0,0,0,22.23c0-.29,0-.58,0-.86Z"/> <path d="M101.5,82.67H99.75L99.89,81c.07-.8.11-1.58.11-2.33V54.24h1.5a14.22,14.22,0,0,1,0,28.43ZM103,57.34V78.71c0,.28,0,.57,0,.86a11.22,11.22,0,0,0,0-22.23Z"/> <path d="M25.21,44.53a1.5,1.5,0,0,1-.9-2.7,65.06,65.06,0,0,1,78.09,0,1.5,1.5,0,0,1-1.8,2.4,62.06,62.06,0,0,0-74.49,0A1.5,1.5,0,0,1,25.21,44.53Z"/> <path d="M69.71,25.46a1.5,1.5,0,0,1-1.5-1.5,4.86,4.86,0,1,0-9.71,0,1.5,1.5,0,1,1-3,0,7.86,7.86,0,1,1,15.71,0A1.5,1.5,0,0,1,69.71,25.46Z"/> <path d="M88.79,89a1.5,1.5,0,0,1-1.5-1.5V62.1a1.5,1.5,0,0,1,3,0V87.53A1.5,1.5,0,0,1,88.79,89Z"/> <path d="M82.43,89a1.5,1.5,0,0,1-1.5-1.5V68.46a1.5,1.5,0,1,1,3,0V87.53A1.5,1.5,0,0,1,82.43,89Z"/> </g> </g>
</svg>